<svg width="391" height="64" viewBox="0 0 391 64" fill="none" xmlns="http://www.w3.org/2000/svg">
<rect x="0.5" y="0.5" width="390" height="63" rx="7.5" fill="white" stroke="#0D4CD3"/>
<path d="M102.148 41V23.78H107.716C108.788 23.78 109.708 23.884 110.476 24.092C111.244 24.3 111.876 24.6 112.372 24.992C112.868 25.376 113.232 25.848 113.464 26.408C113.704 26.968 113.824 27.596 113.824 28.292C113.824 28.708 113.756 29.112 113.62 29.504C113.492 29.888 113.296 30.248 113.032 30.584C112.768 30.912 112.436 31.212 112.036 31.484C111.636 31.748 111.168 31.964 110.632 32.132C111.872 32.38 112.808 32.836 113.44 33.5C114.08 34.156 114.4 35.012 114.4 36.068C114.4 36.804 114.264 37.476 113.992 38.084C113.72 38.684 113.324 39.2 112.804 39.632C112.284 40.064 111.644 40.4 110.884 40.64C110.132 40.88 109.272 41 108.304 41H102.148ZM104.62 33.2V39.032H108.268C108.924 39.032 109.484 38.956 109.948 38.804C110.412 38.652 110.792 38.444 111.088 38.18C111.384 37.908 111.6 37.588 111.736 37.22C111.88 36.852 111.952 36.448 111.952 36.008C111.952 35.144 111.648 34.46 111.04 33.956C110.432 33.452 109.508 33.2 108.268 33.2H104.62ZM104.62 31.448H107.608C108.248 31.448 108.804 31.38 109.276 31.244C109.748 31.108 110.136 30.916 110.44 30.668C110.752 30.42 110.984 30.12 111.136 29.768C111.288 29.416 111.364 29.024 111.364 28.592C111.364 27.6 111.064 26.876 110.464 26.42C109.872 25.956 108.956 25.724 107.716 25.724H104.62V31.448ZM122.203 28.628C123.099 28.628 123.907 28.776 124.627 29.072C125.347 29.36 125.959 29.776 126.463 30.32C126.967 30.864 127.355 31.524 127.627 32.3C127.899 33.068 128.035 33.932 128.035 34.892C128.035 35.852 127.899 36.72 127.627 37.496C127.355 38.272 126.967 38.932 126.463 39.476C125.959 40.02 125.347 40.44 124.627 40.736C123.907 41.024 123.099 41.168 122.203 41.168C121.307 41.168 120.495 41.024 119.767 40.736C119.047 40.44 118.431 40.02 117.919 39.476C117.415 38.932 117.027 38.272 116.755 37.496C116.483 36.72 116.347 35.852 116.347 34.892C116.347 33.932 116.483 33.068 116.755 32.3C117.027 31.524 117.415 30.864 117.919 30.32C118.431 29.776 119.047 29.36 119.767 29.072C120.495 28.776 121.307 28.628 122.203 28.628ZM122.203 39.392C123.371 39.392 124.243 39 124.819 38.216C125.395 37.432 125.683 36.328 125.683 34.904C125.683 33.488 125.395 32.384 124.819 31.592C124.243 30.8 123.371 30.404 122.203 30.404C121.019 30.404 120.135 30.8 119.551 31.592C118.975 32.384 118.687 33.488 118.687 34.904C118.687 36.328 118.975 37.432 119.551 38.216C120.135 39 121.019 39.392 122.203 39.392ZM130.672 41.012V28.832H132.952V36.896C132.952 37.056 132.944 37.232 132.928 37.424C132.912 37.608 132.892 37.792 132.868 37.976C133.012 37.664 133.16 37.388 133.312 37.148C133.32 37.132 133.408 37.008 133.576 36.776C133.752 36.544 133.972 36.248 134.236 35.888C134.508 35.52 134.812 35.104 135.148 34.64C135.492 34.176 135.84 33.704 136.192 33.224C137.024 32.096 137.964 30.82 139.012 29.396C139.1 29.26 139.212 29.132 139.348 29.012C139.492 28.884 139.652 28.82 139.828 28.82H141.208V41H138.928V32.936C138.928 32.776 138.936 32.604 138.952 32.42C138.968 32.228 138.988 32.04 139.012 31.856C138.94 32.016 138.864 32.164 138.784 32.3C138.712 32.436 138.64 32.56 138.568 32.672C138.552 32.688 138.46 32.812 138.292 33.044C138.124 33.276 137.904 33.576 137.632 33.944C137.36 34.312 137.052 34.728 136.708 35.192C136.372 35.656 136.028 36.128 135.676 36.608C134.844 37.736 133.908 39.012 132.868 40.436C132.78 40.572 132.664 40.704 132.52 40.832C132.384 40.952 132.228 41.012 132.052 41.012H130.672ZM136.084 25.844C136.404 25.844 136.676 25.808 136.9 25.736C137.124 25.664 137.304 25.548 137.44 25.388C137.576 25.22 137.672 25.004 137.728 24.74C137.792 24.476 137.824 24.156 137.824 23.78H139.156C139.316 23.78 139.436 23.852 139.516 23.996C139.604 24.132 139.648 24.284 139.648 24.452C139.648 24.852 139.564 25.216 139.396 25.544C139.236 25.864 139.004 26.14 138.7 26.372C138.396 26.596 138.02 26.772 137.572 26.9C137.132 27.02 136.636 27.08 136.084 27.08C135.532 27.08 135.032 27.02 134.584 26.9C134.144 26.772 133.772 26.596 133.468 26.372C133.164 26.14 132.928 25.864 132.76 25.544C132.6 25.216 132.52 24.852 132.52 24.452C132.52 24.284 132.56 24.132 132.64 23.996C132.728 23.852 132.852 23.78 133.012 23.78H134.344C134.344 24.156 134.372 24.476 134.428 24.74C134.492 25.004 134.592 25.22 134.728 25.388C134.864 25.548 135.04 25.664 135.256 25.736C135.48 25.808 135.756 25.844 136.084 25.844ZM143.191 28.82H154.699V30.548H150.079V41H147.811V30.548H143.191V28.82ZM156.687 41.012V28.832H158.967V36.896C158.967 37.056 158.959 37.232 158.943 37.424C158.927 37.608 158.907 37.792 158.883 37.976C159.027 37.664 159.175 37.388 159.327 37.148C159.335 37.132 159.423 37.008 159.591 36.776C159.767 36.544 159.987 36.248 160.251 35.888C160.523 35.52 160.827 35.104 161.163 34.64C161.507 34.176 161.855 33.704 162.207 33.224C163.039 32.096 163.979 30.82 165.027 29.396C165.115 29.26 165.227 29.132 165.363 29.012C165.507 28.884 165.667 28.82 165.843 28.82H167.223V41H164.943V32.936C164.943 32.776 164.951 32.604 164.967 32.42C164.983 32.228 165.003 32.04 165.027 31.856C164.955 32.016 164.879 32.164 164.799 32.3C164.727 32.436 164.655 32.56 164.583 32.672C164.567 32.688 164.475 32.812 164.307 33.044C164.139 33.276 163.919 33.576 163.647 33.944C163.375 34.312 163.067 34.728 162.723 35.192C162.387 35.656 162.043 36.128 161.691 36.608C160.859 37.736 159.923 39.012 158.883 40.436C158.795 40.572 158.679 40.704 158.535 40.832C158.399 40.952 158.243 41.012 158.067 41.012H156.687ZM185.729 41H183.449V35.9C182.401 36.172 181.421 36.34 180.509 36.404C179.597 36.468 178.801 36.392 178.121 36.176C177.441 35.952 176.905 35.572 176.513 35.036C176.121 34.5 175.925 33.768 175.925 32.84V28.82H178.205V32.504C178.205 33.072 178.317 33.524 178.541 33.86C178.765 34.188 179.097 34.42 179.537 34.556C179.977 34.684 180.521 34.724 181.169 34.676C181.825 34.62 182.585 34.492 183.449 34.292V28.82H185.729V41ZM194.059 28.628C194.795 28.628 195.475 28.752 196.099 29C196.723 29.24 197.263 29.592 197.719 30.056C198.175 30.52 198.531 31.092 198.787 31.772C199.043 32.444 199.171 33.216 199.171 34.088C199.171 34.44 199.131 34.676 199.051 34.796C198.979 34.916 198.839 34.976 198.631 34.976H190.591C190.615 35.72 190.719 36.368 190.903 36.92C191.095 37.472 191.351 37.932 191.671 38.3C191.999 38.66 192.391 38.932 192.847 39.116C193.303 39.292 193.811 39.38 194.371 39.38C194.899 39.38 195.351 39.32 195.727 39.2C196.111 39.08 196.439 38.948 196.711 38.804C196.991 38.66 197.227 38.528 197.419 38.408C197.611 38.288 197.779 38.228 197.923 38.228C198.115 38.228 198.255 38.3 198.343 38.444L198.991 39.272C198.711 39.608 198.387 39.896 198.019 40.136C197.651 40.368 197.255 40.564 196.831 40.724C196.407 40.876 195.967 40.988 195.511 41.06C195.063 41.132 194.619 41.168 194.179 41.168C193.339 41.168 192.559 41.028 191.839 40.748C191.127 40.46 190.511 40.044 189.991 39.5C189.471 38.948 189.063 38.268 188.767 37.46C188.479 36.644 188.335 35.708 188.335 34.652C188.335 33.804 188.467 33.016 188.731 32.288C188.995 31.552 189.371 30.916 189.859 30.38C190.355 29.836 190.955 29.408 191.659 29.096C192.371 28.784 193.171 28.628 194.059 28.628ZM194.095 30.296C193.095 30.296 192.307 30.588 191.731 31.172C191.163 31.748 190.807 32.548 190.663 33.572H197.131C197.131 33.092 197.063 32.652 196.927 32.252C196.791 31.852 196.591 31.508 196.327 31.22C196.071 30.932 195.755 30.708 195.379 30.548C195.003 30.38 194.575 30.296 194.095 30.296ZM201.734 45.092V28.82H203.102C203.422 28.82 203.622 28.972 203.702 29.276L203.894 30.668C204.406 30.052 204.994 29.556 205.658 29.18C206.33 28.796 207.098 28.604 207.962 28.604C208.658 28.604 209.286 28.74 209.846 29.012C210.414 29.276 210.898 29.672 211.298 30.2C211.706 30.728 212.018 31.38 212.234 32.156C212.45 32.924 212.558 33.812 212.558 34.82C212.558 35.724 212.438 36.564 212.198 37.34C211.958 38.108 211.61 38.776 211.154 39.344C210.698 39.912 210.146 40.36 209.498 40.688C208.85 41.008 208.118 41.168 207.302 41.168C206.558 41.168 205.926 41.048 205.406 40.808C204.886 40.568 204.422 40.224 204.014 39.776V45.092H201.734ZM207.218 30.44C206.53 30.44 205.93 30.596 205.418 30.908C204.914 31.212 204.446 31.648 204.014 32.216V38.036C204.398 38.54 204.814 38.896 205.262 39.104C205.718 39.304 206.226 39.404 206.786 39.404C207.882 39.404 208.726 39.012 209.318 38.228C209.91 37.444 210.206 36.308 210.206 34.82C210.206 34.044 210.138 33.38 210.002 32.828C209.866 32.276 209.67 31.824 209.414 31.472C209.158 31.112 208.846 30.852 208.478 30.692C208.11 30.524 207.69 30.44 207.218 30.44ZM220.239 28.628C220.975 28.628 221.655 28.752 222.279 29C222.903 29.24 223.443 29.592 223.899 30.056C224.355 30.52 224.711 31.092 224.967 31.772C225.223 32.444 225.351 33.216 225.351 34.088C225.351 34.44 225.311 34.676 225.231 34.796C225.159 34.916 225.019 34.976 224.811 34.976H216.771C216.795 35.72 216.899 36.368 217.083 36.92C217.275 37.472 217.531 37.932 217.851 38.3C218.179 38.66 218.571 38.932 219.027 39.116C219.483 39.292 219.991 39.38 220.551 39.38C221.079 39.38 221.531 39.32 221.907 39.2C222.291 39.08 222.619 38.948 222.891 38.804C223.171 38.66 223.407 38.528 223.599 38.408C223.791 38.288 223.959 38.228 224.103 38.228C224.295 38.228 224.435 38.3 224.523 38.444L225.171 39.272C224.891 39.608 224.567 39.896 224.199 40.136C223.831 40.368 223.435 40.564 223.011 40.724C222.587 40.876 222.147 40.988 221.691 41.06C221.243 41.132 220.799 41.168 220.359 41.168C219.519 41.168 218.739 41.028 218.019 40.748C217.307 40.46 216.691 40.044 216.171 39.5C215.651 38.948 215.243 38.268 214.947 37.46C214.659 36.644 214.515 35.708 214.515 34.652C214.515 33.804 214.647 33.016 214.911 32.288C215.175 31.552 215.551 30.916 216.039 30.38C216.535 29.836 217.135 29.408 217.839 29.096C218.551 28.784 219.351 28.628 220.239 28.628ZM220.275 30.296C219.275 30.296 218.487 30.588 217.911 31.172C217.343 31.748 216.987 32.548 216.843 33.572H223.311C223.311 33.092 223.243 32.652 223.107 32.252C222.971 31.852 222.771 31.508 222.507 31.22C222.251 30.932 221.935 30.708 221.559 30.548C221.183 30.38 220.755 30.296 220.275 30.296ZM227.146 30.08C227.602 29.648 228.162 29.3 228.826 29.036C229.49 28.764 230.282 28.628 231.202 28.628C231.946 28.628 232.602 28.72 233.17 28.904C233.738 29.08 234.214 29.316 234.598 29.612C234.982 29.908 235.27 30.252 235.462 30.644C235.662 31.028 235.762 31.424 235.762 31.832C235.762 32.072 235.722 32.324 235.642 32.588C235.57 32.844 235.446 33.096 235.27 33.344C235.102 33.584 234.878 33.808 234.598 34.016C234.318 34.216 233.974 34.384 233.566 34.52C234.326 34.752 234.926 35.124 235.366 35.636C235.806 36.14 236.026 36.764 236.026 37.508C236.026 38.076 235.894 38.588 235.63 39.044C235.374 39.492 235.026 39.876 234.586 40.196C234.154 40.508 233.65 40.748 233.074 40.916C232.506 41.084 231.91 41.168 231.286 41.168C230.902 41.168 230.506 41.132 230.098 41.06C229.69 40.988 229.29 40.876 228.898 40.724C228.514 40.572 228.146 40.376 227.794 40.136C227.45 39.896 227.142 39.608 226.87 39.272L227.518 38.444C227.614 38.3 227.758 38.228 227.95 38.228C228.094 38.228 228.246 38.292 228.406 38.42C228.574 38.54 228.778 38.672 229.018 38.816C229.258 38.96 229.546 39.096 229.882 39.224C230.218 39.344 230.634 39.404 231.13 39.404C231.562 39.404 231.946 39.352 232.282 39.248C232.618 39.144 232.902 39 233.134 38.816C233.374 38.624 233.554 38.404 233.674 38.156C233.794 37.9 233.854 37.62 233.854 37.316C233.854 36.732 233.614 36.268 233.134 35.924C232.654 35.572 231.914 35.396 230.914 35.396H229.534V33.872H230.914C231.786 33.872 232.466 33.708 232.954 33.38C233.442 33.052 233.686 32.628 233.686 32.108C233.686 31.876 233.634 31.656 233.53 31.448C233.426 31.24 233.266 31.06 233.05 30.908C232.842 30.748 232.578 30.624 232.258 30.536C231.938 30.44 231.566 30.392 231.142 30.392C230.67 30.392 230.27 30.44 229.942 30.536C229.622 30.624 229.346 30.728 229.114 30.848C228.89 30.96 228.702 31.064 228.55 31.16C228.406 31.248 228.282 31.292 228.178 31.292C228.066 31.292 227.974 31.272 227.902 31.232C227.838 31.184 227.762 31.092 227.674 30.956L227.146 30.08ZM255.697 25.724H247.765V41H245.281V23.78H255.697V25.724ZM258.726 28.628C259.622 28.628 260.43 28.776 261.15 29.072C261.87 29.36 262.482 29.776 262.986 30.32C263.49 30.864 263.878 31.524 264.15 32.3C264.422 33.068 264.558 33.932 264.558 34.892C264.558 35.852 264.422 36.72 264.15 37.496C263.878 38.272 263.49 38.932 262.986 39.476C262.482 40.02 261.87 40.44 261.15 40.736C260.43 41.024 259.622 41.168 258.726 41.168C257.83 41.168 257.018 41.024 256.29 40.736C255.57 40.44 254.954 40.02 254.442 39.476C253.938 38.932 253.55 38.272 253.278 37.496C253.006 36.72 252.87 35.852 252.87 34.892C252.87 33.932 253.006 33.068 253.278 32.3C253.55 31.524 253.938 30.864 254.442 30.32C254.954 29.776 255.57 29.36 256.29 29.072C257.018 28.776 257.83 28.628 258.726 28.628ZM258.726 39.392C259.894 39.392 260.766 39 261.342 38.216C261.918 37.432 262.206 36.328 262.206 34.904C262.206 33.488 261.918 32.384 261.342 31.592C260.766 30.8 259.894 30.404 258.726 30.404C257.542 30.404 256.658 30.8 256.074 31.592C255.498 32.384 255.21 33.488 255.21 34.904C255.21 36.328 255.498 37.432 256.074 38.216C256.658 39 257.542 39.392 258.726 39.392ZM275.715 31.064C275.651 31.152 275.583 31.22 275.511 31.268C275.447 31.316 275.355 31.34 275.235 31.34C275.107 31.34 274.971 31.292 274.827 31.196C274.683 31.092 274.507 30.984 274.299 30.872C274.091 30.752 273.835 30.644 273.531 30.548C273.227 30.444 272.855 30.392 272.415 30.392C271.831 30.392 271.315 30.496 270.867 30.704C270.419 30.912 270.043 31.212 269.739 31.604C269.443 31.996 269.219 32.468 269.067 33.02C268.915 33.572 268.839 34.196 268.839 34.892C268.839 35.612 268.919 36.252 269.079 36.812C269.247 37.372 269.479 37.844 269.775 38.228C270.079 38.612 270.443 38.904 270.867 39.104C271.299 39.304 271.779 39.404 272.307 39.404C272.819 39.404 273.239 39.344 273.567 39.224C273.895 39.096 274.167 38.96 274.383 38.816C274.599 38.672 274.779 38.54 274.923 38.42C275.075 38.292 275.227 38.228 275.379 38.228C275.571 38.228 275.715 38.3 275.811 38.444L276.459 39.272C276.179 39.608 275.867 39.896 275.523 40.136C275.179 40.376 274.811 40.572 274.419 40.724C274.027 40.876 273.619 40.988 273.195 41.06C272.771 41.132 272.339 41.168 271.899 41.168C271.139 41.168 270.431 41.028 269.775 40.748C269.119 40.468 268.547 40.06 268.059 39.524C267.579 38.988 267.199 38.332 266.919 37.556C266.647 36.772 266.511 35.884 266.511 34.892C266.511 33.988 266.635 33.156 266.883 32.396C267.139 31.628 267.511 30.964 267.999 30.404C268.487 29.844 269.087 29.408 269.799 29.096C270.519 28.784 271.343 28.628 272.271 28.628C273.143 28.628 273.907 28.768 274.563 29.048C275.227 29.328 275.811 29.72 276.315 30.224L275.715 31.064ZM282.484 44.552C282.412 44.728 282.32 44.86 282.208 44.948C282.096 45.044 281.924 45.092 281.692 45.092H280L282.232 40.256L277.216 28.82H279.196C279.388 28.82 279.54 28.868 279.652 28.964C279.764 29.052 279.84 29.156 279.88 29.276L283.036 36.716C283.172 37.084 283.28 37.448 283.36 37.808C283.416 37.624 283.476 37.44 283.54 37.256C283.604 37.064 283.672 36.876 283.744 36.692L286.792 29.276C286.84 29.14 286.924 29.032 287.044 28.952C287.164 28.864 287.3 28.82 287.452 28.82H289.264L282.484 44.552ZM299.27 31.064C299.206 31.152 299.138 31.22 299.066 31.268C299.002 31.316 298.91 31.34 298.79 31.34C298.662 31.34 298.526 31.292 298.382 31.196C298.238 31.092 298.062 30.984 297.854 30.872C297.646 30.752 297.39 30.644 297.086 30.548C296.782 30.444 296.41 30.392 295.97 30.392C295.386 30.392 294.87 30.496 294.422 30.704C293.974 30.912 293.598 31.212 293.294 31.604C292.998 31.996 292.774 32.468 292.622 33.02C292.47 33.572 292.394 34.196 292.394 34.892C292.394 35.612 292.474 36.252 292.634 36.812C292.802 37.372 293.034 37.844 293.33 38.228C293.634 38.612 293.998 38.904 294.422 39.104C294.854 39.304 295.334 39.404 295.862 39.404C296.374 39.404 296.794 39.344 297.122 39.224C297.45 39.096 297.722 38.96 297.938 38.816C298.154 38.672 298.334 38.54 298.478 38.42C298.63 38.292 298.782 38.228 298.934 38.228C299.126 38.228 299.27 38.3 299.366 38.444L300.014 39.272C299.734 39.608 299.422 39.896 299.078 40.136C298.734 40.376 298.366 40.572 297.974 40.724C297.582 40.876 297.174 40.988 296.75 41.06C296.326 41.132 295.894 41.168 295.454 41.168C294.694 41.168 293.986 41.028 293.33 40.748C292.674 40.468 292.102 40.06 291.614 39.524C291.134 38.988 290.754 38.332 290.474 37.556C290.202 36.772 290.066 35.884 290.066 34.892C290.066 33.988 290.19 33.156 290.438 32.396C290.694 31.628 291.066 30.964 291.554 30.404C292.042 29.844 292.642 29.408 293.354 29.096C294.074 28.784 294.898 28.628 295.826 28.628C296.698 28.628 297.462 28.768 298.118 29.048C298.782 29.328 299.366 29.72 299.87 30.224L299.27 31.064ZM312.987 28.82V41H310.719V30.608H307.011C306.915 32.144 306.771 33.472 306.579 34.592C306.387 35.712 306.155 36.664 305.883 37.448C305.611 38.224 305.311 38.856 304.983 39.344C304.655 39.832 304.307 40.212 303.939 40.484C303.571 40.748 303.191 40.928 302.799 41.024C302.407 41.12 302.015 41.168 301.623 41.168C300.911 41.168 300.555 41.052 300.555 40.82V39.38H301.191C301.463 39.38 301.739 39.336 302.019 39.248C302.299 39.152 302.571 38.968 302.835 38.696C303.099 38.424 303.351 38.048 303.591 37.568C303.839 37.08 304.063 36.448 304.263 35.672C304.463 34.888 304.635 33.936 304.779 32.816C304.931 31.696 305.047 30.364 305.127 28.82H312.987ZM320.148 44.552C320.076 44.728 319.984 44.86 319.872 44.948C319.76 45.044 319.588 45.092 319.356 45.092H317.664L319.896 40.256L314.88 28.82H316.86C317.052 28.82 317.204 28.868 317.316 28.964C317.428 29.052 317.504 29.156 317.544 29.276L320.7 36.716C320.836 37.084 320.944 37.448 321.024 37.808C321.08 37.624 321.14 37.44 321.204 37.256C321.268 37.064 321.336 36.876 321.408 36.692L324.456 29.276C324.504 29.14 324.588 29.032 324.708 28.952C324.828 28.864 324.964 28.82 325.116 28.82H326.928L320.148 44.552ZM336.698 28.82V30.548H331.022V41H328.742V28.82H336.698ZM338.679 41.012V28.832H340.959V36.896C340.959 37.056 340.951 37.232 340.935 37.424C340.919 37.608 340.899 37.792 340.875 37.976C341.019 37.664 341.167 37.388 341.319 37.148C341.327 37.132 341.415 37.008 341.583 36.776C341.759 36.544 341.979 36.248 342.243 35.888C342.515 35.52 342.819 35.104 343.155 34.64C343.499 34.176 343.847 33.704 344.199 33.224C345.031 32.096 345.971 30.82 347.019 29.396C347.107 29.26 347.219 29.132 347.355 29.012C347.499 28.884 347.659 28.82 347.835 28.82H349.215V41H346.935V32.936C346.935 32.776 346.943 32.604 346.959 32.42C346.975 32.228 346.995 32.04 347.019 31.856C346.947 32.016 346.871 32.164 346.791 32.3C346.719 32.436 346.647 32.56 346.575 32.672C346.559 32.688 346.467 32.812 346.299 33.044C346.131 33.276 345.911 33.576 345.639 33.944C345.367 34.312 345.059 34.728 344.715 35.192C344.379 35.656 344.035 36.128 343.683 36.608C342.851 37.736 341.915 39.012 340.875 40.436C340.787 40.572 340.671 40.704 340.527 40.832C340.391 40.952 340.235 41.012 340.059 41.012H338.679Z" fill="#0D4CD3"/>
<path d="M81.7983 24.5955C81.6252 22.328 79.8944 19.4209 78.1637 18.0255C76.2174 16.5975 74.1951 15.2777 72.106 14.0719C70.0326 12.8335 67.895 11.7078 65.7021 10.6997C64.5308 10.2182 63.2747 9.98085 62.0098 10.002C60.7445 9.97525 59.4873 10.2128 58.3175 10.6997C56.1251 11.7085 53.9874 12.8341 51.9137 14.0719C48.5675 16.1069 45.856 18.0255 45.856 18.0255C44.415 19.2409 43.3277 20.8095 42.6878 22.5643C42.5734 22.8782 42.8134 23.1999 43.1475 23.1999H45.9137C46.2852 23.1999 46.6221 22.9913 46.817 22.675C47.3097 21.8754 47.9307 21.1535 48.662 20.5409C48.662 20.5409 50.9008 18.9676 53.6637 17.299C55.3759 16.284 57.1409 15.3609 58.9512 14.5338C59.917 14.1345 60.9551 13.9397 61.9998 13.9616C63.0442 13.9443 64.0813 14.1389 65.0485 14.5338C66.8591 15.3603 68.6241 16.2834 70.336 17.299C72.061 18.2877 73.7307 19.3699 75.3377 20.5409C76.7668 21.6851 78.1958 24.0689 78.3387 25.9283C78.3387 25.9283 78.6722 28.6935 78.7198 31.9688C78.7169 33.9916 78.6056 36.0128 78.3864 38.0237C78.054 40.1292 76.971 42.043 75.3377 43.411C75.3377 43.411 73.0989 45.032 70.336 46.7007C68.6238 47.7157 66.8588 48.6387 65.0485 49.4659C64.0826 49.8652 63.0446 50.06 61.9998 50.038C60.9564 50.0599 59.9194 49.8702 58.9512 49.4802C57.1406 48.6536 55.3756 47.7305 53.6637 46.715C50.9008 45.094 48.662 43.4253 48.662 43.4253C48.0246 42.9151 47.3873 42.1582 46.8599 41.3113C46.6667 41.0012 46.3336 40.7998 45.9682 40.7998H43.1592C42.8208 40.7998 42.581 41.1287 42.7057 41.4433C43.3975 43.1888 44.6268 44.9423 45.856 45.9334C45.856 45.9334 48.5675 47.9683 51.9137 49.9451C53.987 51.1836 56.1247 52.3093 58.3175 53.3173C59.4901 53.7929 60.7461 54.0243 62.0098 53.9976C63.2752 54.0244 64.5324 53.7868 65.7021 53.2999C67.8946 52.2911 70.0323 51.1655 72.106 49.9277C75.4521 47.8927 78.1637 45.9159 78.1637 45.9159C80.1418 44.2475 81.4534 41.9137 81.856 39.346C82.1215 36.8937 82.2563 34.4288 82.2598 31.962C82.2021 27.9677 81.7983 24.5955 81.7983 24.5955Z" fill="url(#paint0_linear_119_2010)"/>
<path d="M41.76 27.1622C41.76 26.6762 42.154 26.2822 42.64 26.2822H56.28C56.766 26.2822 57.16 26.6762 57.16 27.1622V29.8022C57.16 30.2882 56.766 30.6822 56.28 30.6822H41.76V27.1622Z" fill="#0066B3"/>
<path d="M41.76 33.3223H69.48C69.966 33.3223 70.36 33.7163 70.36 34.2023V36.8422C70.36 37.3282 69.966 37.7222 69.48 37.7222H42.64C42.154 37.7222 41.76 37.3282 41.76 36.8422V33.3223Z" fill="#EE2F53"/>
<defs>
<linearGradient id="paint0_linear_119_2010" x1="62.3676" y1="10" x2="62.3676" y2="53.9997" gradientUnits="userSpaceOnUse">
<stop stop-color="#0066B3"/>
<stop offset="0.354167" stop-color="#0066B3"/>
<stop offset="0.6875" stop-color="#EE2F53"/>
<stop offset="1" stop-color="#EE2F53"/>
</linearGradient>
</defs>
</svg>
